# xmcd
#
# Track frame offsets: 
#        150
#        20195
#        35432
#        61830
#        77937
#        104052
#        125345
#        140570
#
# Disc length: 2114 seconds
#
# Revision: 3
# Processed by: cddbd v1.5.2PL0 Copyright (c) Steve Scherf et al.
# Submitted via: ExactAudioCopy v0.99pb4
#
DISCID=71084008
DTITLE=Lightnin' Hopkins - XRCD-Goin' Away
DYEAR=1963
DGENRE=Blues
TTITLE0=Wake Up Old Lady
TTITLE1=Don't Embarrass Me, Baby
TTITLE2=Stranger Here
TTITLE3=Little Sister's Boogie
TTITLE4=Goin' Away
TTITLE5=You Better Stop Her
TTITLE6=Business You're Doin'
TTITLE7=I'm Wit' It
EXTD=
EXTT0=
EXTT1=
EXTT2=
EXTT3=
EXTT4=
EXTT5=
EXTT6=
EXTT7=
PLAYORDER=
